<svg width="16" height="16" viewBox="0 0 16 16" fill="none" xmlns="http://www.w3.org/2000/svg">
<path d="M14.9678 14.6975H6.7773L13.4752 7.99949L13.476 7.99876L15.6184 5.85626C15.7393 5.73541 15.8352 5.59193 15.9006 5.43403C15.966 5.27612 15.9997 5.10688 15.9997 4.93596C15.9997 4.76504 15.9661 4.59579 15.9007 4.43788C15.8353 4.27997 15.7394 4.13649 15.6185 4.01563L11.9834 0.380416C11.7391 0.136788 11.4081 -1.52477e-05 11.0631 1.27467e-09C10.718 1.52502e-05 10.3871 0.136848 10.1428 0.380498L0.38119 10.1421C0.254771 10.2685 0.15582 10.4196 0.0905386 10.586C0.0838681 10.6023 0.0782553 10.6188 0.0728864 10.6354C0.0248932 10.7726 0.000256232 10.917 0 11.0624V14.6975C0.000387552 15.0426 0.137639 15.3734 0.381642 15.6174C0.625644 15.8614 0.956472 15.9986 1.30154 15.999H14.9678C15.1403 15.999 15.3059 15.9305 15.4279 15.8084C15.55 15.6864 15.6185 15.5208 15.6185 15.3483C15.6185 15.1757 15.55 15.0101 15.4279 14.8881C15.3059 14.766 15.1403 14.6975 14.9678 14.6975ZM1.57113 10.7928L8.46003 3.90394L12.0951 7.53899L5.20618 14.428L1.57113 10.7928ZM11.0631 1.30077L14.6982 4.9359L13.0154 6.61863L9.38039 2.98359L11.0631 1.30077ZM1.30154 12.364L3.63505 14.6975H1.30154V12.364Z" fill="white"/>
</svg>
