<svg width="41" height="40" viewBox="0 0 41 40" fill="none" xmlns="http://www.w3.org/2000/svg">
<path d="M28.3881 33.5485C29.4571 33.5485 30.3236 32.6819 30.3236 31.613C30.3236 30.544 29.4571 29.6775 28.3881 29.6775C27.3192 29.6775 26.4526 30.544 26.4526 31.613C26.4526 32.6819 27.3192 33.5485 28.3881 33.5485Z" fill="#EB1616"/>
<path d="M29.6784 21.9355H27.0978C26.7415 21.9355 26.4526 22.2244 26.4526 22.5807V25.1614C26.4526 25.5177 26.7415 25.8065 27.0978 25.8065H29.6784C30.0348 25.8065 30.3236 25.5177 30.3236 25.1614V22.5807C30.3236 22.2244 30.0348 21.9355 29.6784 21.9355Z" fill="#EB1616"/>
<path d="M38.0657 12.9032H36.1302C35.9591 12.9032 35.795 12.8353 35.674 12.7143C35.553 12.5933 35.4851 12.4292 35.4851 12.2581V9.67743C35.4851 9.1641 35.2812 8.67181 34.9182 8.30883C34.5552 7.94586 34.0629 7.74194 33.5496 7.74194H23.227C22.7137 7.74194 22.2214 7.94586 21.8584 8.30883C21.4954 8.67181 21.2915 9.1641 21.2915 9.67743V12.2581C21.2915 12.4292 21.2235 12.5933 21.1026 12.7143C20.9816 12.8353 20.8175 12.9032 20.6464 12.9032H18.7109C18.1976 12.9032 17.7053 13.1071 17.3423 13.4701C16.9793 13.8331 16.7754 14.3254 16.7754 14.8387V32.9032C16.7754 33.4166 16.9793 33.9089 17.3423 34.2718C17.7053 34.6348 18.1976 34.8387 18.7109 34.8387H20.6464C20.8175 34.8387 20.9816 34.9067 21.1026 35.0277C21.2235 35.1487 21.2915 35.3128 21.2915 35.4839V38.0645C21.2915 38.5778 21.4954 39.0701 21.8584 39.4331C22.2214 39.7961 22.7137 40 23.227 40H33.5496C34.0629 40 34.5552 39.7961 34.9182 39.4331C35.2812 39.0701 35.4851 38.5778 35.4851 38.0645V35.4839C35.4851 35.3128 35.553 35.1487 35.674 35.0277C35.795 34.9067 35.9591 34.8387 36.1302 34.8387H38.0657C38.579 34.8387 39.0713 34.6348 39.4343 34.2718C39.7973 33.9089 40.0012 33.4166 40.0012 32.9032V14.8387C40.0012 14.3254 39.7973 13.8331 39.4343 13.4701C39.0713 13.1071 38.579 12.9032 38.0657 12.9032ZM29.6786 20.6452C30.1919 20.6452 30.6842 20.8491 31.0472 21.2121C31.4102 21.575 31.6141 22.0673 31.6141 22.5807V25.1613C31.6141 25.6746 31.4102 26.1669 31.0472 26.5299C30.6842 26.8929 30.1919 27.0968 29.6786 27.0968H29.0335V28.4516C29.8167 28.6115 30.5127 29.0565 30.9865 29.7004C31.4603 30.3443 31.6781 31.1411 31.5978 31.9365C31.5174 32.7318 31.1446 33.469 30.5516 34.0051C29.9586 34.5412 29.1877 34.8381 28.3883 34.8381C27.5889 34.8381 26.818 34.5412 26.225 34.0051C25.632 33.469 25.2592 32.7318 25.1788 31.9365C25.0985 31.1411 25.3163 30.3443 25.7901 29.7004C26.2639 29.0565 26.9599 28.6115 27.7431 28.4516V27.0968H27.098C26.5847 27.0968 26.0924 26.8929 25.7294 26.5299C25.3664 26.1669 25.1625 25.6746 25.1625 25.1613V22.5807C25.1625 22.0673 25.3664 21.575 25.7294 21.2121C26.0924 20.8491 26.5847 20.6452 27.098 20.6452H27.7431V19.2903C26.9599 19.1304 26.2639 18.6854 25.7901 18.0416C25.3163 17.3977 25.0985 16.6008 25.1788 15.8055C25.2592 15.0101 25.632 14.2729 26.225 13.7368C26.818 13.2007 27.5889 12.9039 28.3883 12.9039C29.1877 12.9039 29.9586 13.2007 30.5516 13.7368C31.1446 14.2729 31.5174 15.0101 31.5978 15.8055C31.6781 16.6008 31.4603 17.3977 30.9865 18.0416C30.5127 18.6854 29.8167 19.1304 29.0335 19.2903V20.6452H29.6786Z" fill="#EB1616"/>
<path d="M28.3881 18.0646C29.4571 18.0646 30.3236 17.198 30.3236 16.1291C30.3236 15.0601 29.4571 14.1936 28.3881 14.1936C27.3192 14.1936 26.4526 15.0601 26.4526 16.1291C26.4526 17.198 27.3192 18.0646 28.3881 18.0646Z" fill="#EB1616"/>
<path d="M0.00114682 26.5019C-0.0174817 27.1879 0.19128 27.8608 0.594916 28.4158C0.998551 28.9708 1.5744 29.3767 2.23276 29.5703C11.2975 32.2939 20.9628 32.2939 30.0276 29.5703C30.6712 29.3866 31.2374 28.9979 31.6401 28.4632C32.0429 27.9285 32.2602 27.2771 32.2592 26.6077V26.5019C32.2576 26.0275 32.1466 25.5599 31.9349 25.1353C31.7231 24.7108 31.4164 24.3408 31.0384 24.0541C30.6604 23.7674 30.2214 23.5717 29.7556 23.4822C29.2897 23.3927 28.8094 23.4118 28.3521 23.5381C20.4163 25.6819 12.0561 25.6993 4.11147 23.5884C4.61579 22.6354 5.06597 21.6547 5.45986 20.651H10.8005C11.2305 20.6541 11.6492 20.5127 11.9893 20.2495C12.3294 19.9863 12.5712 19.6164 12.676 19.1994C14.1674 13.2128 13.6989 6.90564 11.3392 1.20516C11.1927 0.849112 10.9438 0.544547 10.624 0.330017C10.3043 0.115486 9.92811 0.000634664 9.54308 0H5.3347C5.0079 0.00143645 4.68677 0.0854298 4.40112 0.24418C4.11548 0.40293 3.87458 0.631289 3.7008 0.908049C3.52702 1.18481 3.426 1.501 3.40711 1.82725C3.38822 2.1535 3.45208 2.47923 3.59276 2.77419C4.88808 5.40139 5.62956 8.2668 5.77118 11.1925C5.91279 14.1183 5.45152 17.0419 4.41599 19.7819C3.9417 21.0463 3.37523 22.2741 2.72115 23.4555C1.97241 23.5398 1.28103 23.8971 0.779214 24.4591C0.277402 25.0212 0.000386208 25.7485 0.00114682 26.5019ZM5.92889 19.3606C7.80774 13.7183 7.38796 7.56282 4.7605 2.22774C4.71056 2.12946 4.68664 2.02002 4.69102 1.90986C4.69539 1.7997 4.72793 1.69251 4.78551 1.5985C4.8431 1.50449 4.92381 1.4268 5.01995 1.37285C5.11609 1.3189 5.22445 1.29049 5.3347 1.29032H9.54308C9.67056 1.28959 9.7954 1.32664 9.90184 1.3968C10.0083 1.46695 10.0916 1.56707 10.1411 1.68452C12.3977 7.13468 12.8462 13.1651 11.4205 18.889C11.3832 19.0254 11.3019 19.1456 11.1891 19.2309C11.0764 19.3162 10.9386 19.3618 10.7973 19.3606H5.92889ZM1.29147 26.5019C1.29316 26.2254 1.35872 25.953 1.48302 25.7059C1.60732 25.4589 1.78701 25.2439 2.00807 25.0777C2.22914 24.9115 2.4856 24.7987 2.75745 24.7479C3.02931 24.6972 3.30922 24.7099 3.57534 24.7852C11.7977 27.0077 20.4627 27.0077 28.685 24.7852C28.9511 24.7099 29.231 24.6972 29.5029 24.7479C29.7748 24.7987 30.0312 24.9115 30.2523 25.0777C30.4733 25.2439 30.653 25.4589 30.7773 25.7059C30.9016 25.953 30.9672 26.2254 30.9689 26.5019V26.6077C30.9685 26.9983 30.8407 27.378 30.6049 27.6894C30.3691 28.0007 30.0382 28.2266 29.6624 28.3329C20.8357 30.9839 11.4247 30.9839 2.59792 28.3329C2.20678 28.2177 1.86553 27.9748 1.6287 27.6429C1.39187 27.311 1.27314 26.9093 1.29147 26.5019Z" fill="white"/>
</svg>
