<svg width="40" height="40" viewBox="0 0 40 40" fill="none" xmlns="http://www.w3.org/2000/svg">
<path d="M16.7734 20.0327C23.9097 20.0327 31.6112 16.8277 31.6112 11.65C31.6112 8.73987 29.7906 7.45673 27.6837 7.77929C25.9225 7.81154 24.1762 9.33144 22.3292 10.9404C20.4822 12.5493 18.5559 14.2279 16.7734 14.2279C13.084 14.2279 8.68495 12.3648 8.64108 12.3454C8.53295 12.2991 8.41422 12.2832 8.29772 12.2995C8.18122 12.3158 8.07139 12.3637 7.98012 12.4379C7.88884 12.5121 7.81959 12.6098 7.77986 12.7205C7.74013 12.8313 7.73142 12.9507 7.75469 13.066C7.76824 13.1357 9.23523 20.0327 16.7734 20.0327Z" fill="#EB1616"/>
<path d="M32.3635 14.2299C35.8471 15.1679 38.0799 20.8424 38.105 20.9088C38.1541 21.036 38.2422 21.1445 38.3568 21.2185C38.4713 21.2925 38.6064 21.3283 38.7425 21.3208C38.8787 21.3133 39.009 21.2628 39.1147 21.1766C39.2203 21.0904 39.296 20.9729 39.3307 20.8411C40.3849 16.8375 40.0204 13.7041 38.2463 11.5281C36.518 9.40699 33.8769 8.7251 32.1177 8.51221C32.6682 9.46389 32.9398 10.5513 32.9015 11.6501C32.9019 12.5379 32.7188 13.4162 32.3635 14.2299Z" fill="#EB1616"/>
<path d="M38.9126 23.4281C38.8197 23.5145 29.548 32.0655 24.2277 28.5206C24.1217 28.4499 23.9971 28.4121 23.8697 28.4121C23.7422 28.4121 23.6177 28.4499 23.5116 28.5206C18.2004 32.0591 8.91906 23.5139 8.82681 23.4281C8.73164 23.3384 8.61147 23.2797 8.48222 23.2599C8.35297 23.2401 8.22075 23.26 8.10307 23.317C7.9854 23.374 7.88783 23.4655 7.82329 23.5792C7.75876 23.6929 7.73031 23.8236 7.74172 23.9538C7.75333 24.0958 8.93454 36.5743 19.3539 39.4328V35.5053C19.3539 35.3342 19.4218 35.1701 19.5428 35.0492C19.6638 34.9282 19.8279 34.8602 19.999 34.8602C20.1701 34.8602 20.3342 34.9282 20.4551 35.0492C20.5761 35.1701 20.6441 35.3342 20.6441 35.5053V39.7257C21.4963 39.8802 22.3589 39.971 23.2246 39.9973V33.5713C23.2246 33.4002 23.2925 33.2361 23.4135 33.1151C23.5345 32.9941 23.6986 32.9261 23.8697 32.9261C24.0408 32.9261 24.2049 32.9941 24.3258 33.1151C24.4468 33.2361 24.5148 33.4002 24.5148 33.5713V39.9973C25.3805 39.971 26.2431 39.8802 27.0953 39.7257V35.5053C27.0953 35.3342 27.1632 35.1701 27.2842 35.0492C27.4052 34.9282 27.5693 34.8602 27.7404 34.8602C27.9115 34.8602 28.0756 34.9282 28.1966 35.0492C28.3175 35.1701 28.3855 35.3342 28.3855 35.5053V39.4328C38.8022 36.5743 39.9835 24.0958 39.9976 23.9538C40.0091 23.8236 39.9806 23.6929 39.9161 23.5792C39.8515 23.4655 39.754 23.374 39.6363 23.317C39.5186 23.26 39.3864 23.2401 39.2571 23.2599C39.1279 23.2797 39.0077 23.3384 38.9126 23.4281Z" fill="#EB1616"/>
<path d="M7.44463 11.6123V11.6593V11.6645C7.45156 13.8888 8.34178 16.0192 9.91946 17.587C11.4971 19.1549 13.633 20.0319 15.8573 20.0249C18.0815 20.018 20.2119 19.1278 21.7798 17.5501C23.3477 15.9724 24.2246 13.8365 24.2177 11.6123V7.74154C24.2177 2.03353 20.5521 0.000120169 17.1214 0.000120169C15.7724 -0.00902331 14.4721 0.50393 13.4926 1.43164C13.1208 1.79928 12.6801 2.09 12.1958 2.28715C11.7115 2.4843 11.1931 2.58402 10.6702 2.58059C10.2371 2.56275 9.80552 2.64201 9.40702 2.81258C9.00852 2.98314 8.65322 3.24068 8.36715 3.56634C7.15045 4.96947 7.39947 7.40286 7.44463 7.78477V11.6123ZM22.9275 11.6123C22.8925 13.462 22.1364 15.225 20.8205 16.5254C19.5046 17.8258 17.7328 18.561 15.8828 18.5741C14.0327 18.5872 12.2507 17.8773 10.9165 16.5957C9.58224 15.314 8.80128 13.562 8.74003 11.7129C8.95098 11.1607 10.0986 8.38666 11.9605 8.38666C13.0452 8.38287 14.1166 8.1473 15.1028 7.69574C15.9377 7.3078 16.846 7.10343 17.7665 7.09642C20.0819 7.09642 22.9275 8.87502 22.9275 10.322V11.6123ZM9.34192 4.41144C9.50836 4.22717 9.71425 4.08284 9.94425 3.98924C10.1742 3.89563 10.4224 3.85516 10.6702 3.87083C12.0194 3.88051 13.3198 3.36748 14.299 2.43931C14.6709 2.07178 15.1116 1.78114 15.5959 1.584C16.0802 1.38685 16.5985 1.28707 17.1214 1.29036C18.4839 1.29036 22.9275 1.75549 22.9275 7.74154V7.84412C21.4979 6.583 19.672 5.86201 17.7665 5.80619C16.6818 5.80998 15.6104 6.04555 14.6242 6.49711C13.7894 6.88519 12.881 7.08956 11.9605 7.09642C11.3086 7.13835 10.676 7.33486 10.1151 7.66972C9.55421 8.00457 9.08108 8.46815 8.73487 9.0221V7.74154C8.73487 7.72606 8.72712 7.71251 8.72583 7.69703C8.72454 7.68155 8.73099 7.66606 8.72906 7.64994C8.64455 7.04546 8.58391 5.28558 9.34192 4.41144Z" fill="white"/>
<path d="M21.2889 21.2891H10.3219C7.58536 21.2923 4.96183 22.3808 3.0268 24.3159C1.09177 26.2509 0.00324387 28.8744 0 31.611C0 31.7821 0.0679676 31.9461 0.188951 32.0671C0.309934 32.1881 0.474023 32.2561 0.645119 32.2561H30.9657C31.1368 32.2561 31.3009 32.1881 31.4219 32.0671C31.5428 31.9461 31.6108 31.7821 31.6108 31.611C31.6076 28.8744 30.519 26.2509 28.584 24.3159C26.649 22.3808 24.0255 21.2923 21.2889 21.2891ZM1.31282 30.9658C1.47875 28.689 2.49963 26.5591 4.1706 25.0036C5.84157 23.4481 8.03898 22.5821 10.3219 22.5793H21.2889C23.5718 22.5821 25.7692 23.4481 27.4402 25.0036C29.1112 26.5591 30.1321 28.689 30.298 30.9658H1.31282Z" fill="white"/>
<path d="M19.3876 14.2605C19.3663 14.2708 17.3091 15.2778 16.344 13.8373C16.285 13.7489 16.2052 13.6765 16.1116 13.6264C16.018 13.5763 15.9134 13.55 15.8072 13.55C15.701 13.55 15.5965 13.5763 15.5028 13.6264C15.4092 13.6765 15.3294 13.7489 15.2705 13.8373C14.3138 15.2656 12.31 14.3005 12.2249 14.2592C12.0717 14.183 11.8944 14.1707 11.7322 14.2252C11.57 14.2796 11.436 14.3963 11.3598 14.5495C11.2836 14.7027 11.2713 14.8799 11.3258 15.0422C11.3802 15.2044 11.4969 15.3384 11.6501 15.4146C12.2962 15.7283 13.0039 15.8949 13.7222 15.9023C14.4836 15.9219 15.2255 15.6595 15.8053 15.1656C16.3859 15.6608 17.1294 15.9235 17.8922 15.9029C18.6105 15.8955 19.3182 15.7289 19.9644 15.4152C20.1175 15.3388 20.234 15.2046 20.2882 15.0422C20.3424 14.8799 20.3299 14.7026 20.2534 14.5495C20.1769 14.3964 20.0427 14.2799 19.8804 14.2257C19.718 14.1715 19.5408 14.184 19.3876 14.2605Z" fill="white"/>
</svg>
