<svg width="40" height="40" viewBox="0 0 40 40" fill="none" xmlns="http://www.w3.org/2000/svg">
<path d="M36.3794 8.89808C35.1271 11.4374 33.5058 13.0471 31.56 13.6832C29.4955 14.3581 27.011 13.9478 24.169 12.4645C24.0771 12.4162 23.9748 12.391 23.871 12.391C23.7671 12.391 23.6648 12.4162 23.5729 12.4645C20.7342 13.9484 18.2452 14.3574 16.1819 13.6832C14.2361 13.0471 12.6148 11.4374 11.3619 8.89808C10.3684 6.88324 7.74194 7.65808 7.74194 10.0284V18.7491C7.74194 26.7155 11.0019 35.6265 18.0645 38.8136V24.5278C18.0645 24.3567 18.1325 24.1926 18.2535 24.0716C18.3745 23.9506 18.5386 23.8826 18.7097 23.8826C18.8808 23.8826 19.0449 23.9506 19.1659 24.0716C19.2869 24.1926 19.3548 24.3567 19.3548 24.5278V39.311C20.6068 39.72 21.9097 39.9519 23.2258 40V20.6542C23.2258 20.4831 23.2938 20.319 23.4148 20.198C23.5358 20.077 23.6999 20.009 23.871 20.009C24.0421 20.009 24.2062 20.077 24.3272 20.198C24.4482 20.319 24.5161 20.4831 24.5161 20.6542V40C25.8323 39.9519 27.1352 39.72 28.3871 39.311V24.5278C28.3871 24.3567 28.4551 24.1926 28.5761 24.0716C28.6971 23.9506 28.8612 23.8826 29.0323 23.8826C29.2034 23.8826 29.3675 23.9506 29.4885 24.0716C29.6095 24.1926 29.6774 24.3567 29.6774 24.5278V38.8116C36.7581 35.6187 40 26.6826 40 18.7471V10.0284C40 7.65808 37.3736 6.88389 36.3794 8.89808Z" fill="#EB1616"/>
<path d="M0.645161 4.51613H4.51613V5.80645C4.51613 7.0042 4.99194 8.1529 5.83887 8.99984C6.68581 9.84678 7.83451 10.3226 9.03226 10.3226C10.23 10.3226 11.3787 9.84678 12.2256 8.99984C13.0726 8.1529 13.5484 7.0042 13.5484 5.80645V4.20387C14.2632 3.57963 15.18 3.23564 16.129 3.23564C17.078 3.23564 17.9949 3.57963 18.7097 4.20387V5.80645C18.7097 7.0042 19.1855 8.1529 20.0324 8.99984C20.8794 9.84678 22.0281 10.3226 23.2258 10.3226C24.4236 10.3226 25.5723 9.84678 26.4192 8.99984C27.2661 8.1529 27.7419 7.0042 27.7419 5.80645V4.51613H31.6129C31.784 4.51613 31.9481 4.44816 32.0691 4.32717C32.1901 4.20617 32.2581 4.04208 32.2581 3.87097C32.2581 3.69986 32.1901 3.53576 32.0691 3.41477C31.9481 3.29378 31.784 3.22581 31.6129 3.22581H27.7419V1.93548C27.7419 1.42216 27.538 0.929864 27.175 0.56689C26.8121 0.203916 26.3198 0 25.8065 0H20.6452C20.1318 0 19.6395 0.203916 19.2766 0.56689C18.9136 0.929864 18.7097 1.42216 18.7097 1.93548V2.66194C17.9299 2.19491 17.038 1.94825 16.129 1.94825C15.2201 1.94825 14.3282 2.19491 13.5484 2.66194V1.93548C13.5484 1.42216 13.3445 0.929864 12.9815 0.56689C12.6185 0.203916 12.1262 0 11.6129 0H6.45161C5.93829 0 5.44599 0.203916 5.08302 0.56689C4.72005 0.929864 4.51613 1.42216 4.51613 1.93548V3.22581H0.645161C0.474054 3.22581 0.309955 3.29378 0.188963 3.41477C0.0679721 3.53576 0 3.69986 0 3.87097C0 4.04208 0.0679721 4.20617 0.188963 4.32717C0.309955 4.44816 0.474054 4.51613 0.645161 4.51613ZM20 1.93548C20 1.76438 20.068 1.60028 20.189 1.47929C20.31 1.35829 20.4741 1.29032 20.6452 1.29032H25.8065C25.9776 1.29032 26.1417 1.35829 26.2627 1.47929C26.3836 1.60028 26.4516 1.76438 26.4516 1.93548V5.80645C26.4516 6.66199 26.1118 7.48249 25.5068 8.08744C24.9018 8.6924 24.0813 9.03226 23.2258 9.03226C22.3703 9.03226 21.5498 8.6924 20.9448 8.08744C20.3399 7.48249 20 6.66199 20 5.80645V1.93548ZM5.80645 1.93548C5.80645 1.76438 5.87442 1.60028 5.99542 1.47929C6.11641 1.35829 6.28051 1.29032 6.45161 1.29032H11.6129C11.784 1.29032 11.9481 1.35829 12.0691 1.47929C12.1901 1.60028 12.2581 1.76438 12.2581 1.93548V5.80645C12.2581 6.66199 11.9182 7.48249 11.3132 8.08744C10.7083 8.6924 9.8878 9.03226 9.03226 9.03226C8.17672 9.03226 7.35623 8.6924 6.75127 8.08744C6.14631 7.48249 5.80645 6.66199 5.80645 5.80645V1.93548Z" fill="white"/>
<path d="M32.2444 17.3549C32.2308 17.2169 32.1732 17.087 32.08 16.9844C31.9868 16.8817 31.863 16.8118 31.727 16.785C31.591 16.7583 31.4499 16.776 31.3248 16.8357C31.1996 16.8953 31.097 16.9937 31.0322 17.1162C30.9844 17.2078 29.818 19.3414 26.3625 19.3414C24.8334 19.3414 24.1534 18.553 23.2928 17.5556C22.2463 16.3452 20.9463 14.8388 17.8418 14.8388C17.2371 14.8327 16.6431 14.9985 16.1289 15.3169C15.6148 14.9985 15.0207 14.8327 14.416 14.8388C11.3115 14.8388 10.0115 16.3452 8.96763 17.5556C8.10699 18.553 7.42699 19.3414 5.89796 19.3414C2.44247 19.3414 1.27602 17.2078 1.23086 17.1207C1.16741 16.9961 1.06517 16.8954 0.939546 16.8339C0.813918 16.7724 0.671707 16.7534 0.534339 16.7798C0.396971 16.8061 0.271888 16.8764 0.177937 16.98C0.0839848 17.0836 0.0262534 17.215 0.0134408 17.3543C-0.0772103 19.2733 0.554929 21.1566 1.78505 22.6323C3.36118 24.4872 5.83151 25.5446 9.12893 25.7756C12.8831 26.0381 15.0134 24.5704 16.1289 23.3201C17.8934 25.2975 20.4515 25.9652 23.1289 25.7756C26.4263 25.5446 28.8967 24.4852 30.4728 22.6323C31.7028 21.1568 32.3349 19.2737 32.2444 17.3549ZM29.4889 21.7975C28.147 23.3775 25.9767 24.2833 23.0373 24.4891C20.1986 24.691 17.9347 23.773 16.6599 21.913C16.6006 21.8265 16.5212 21.7557 16.4285 21.7069C16.3357 21.658 16.2325 21.6324 16.1276 21.6324C16.0228 21.6324 15.9195 21.658 15.8268 21.7069C15.7341 21.7557 15.6546 21.8265 15.5954 21.913C14.3212 23.773 12.056 24.6904 9.21796 24.4891C6.28957 24.2839 4.12118 23.3833 2.78054 21.8123C2.15967 21.0801 1.7179 20.2133 1.49022 19.2807C2.76724 20.208 4.31673 20.6836 5.89409 20.6323C8.01409 20.6323 9.03731 19.4459 9.94054 18.3994C10.9515 17.2317 11.9025 16.1291 14.416 16.1291C14.8877 16.1179 15.3458 16.2873 15.6967 16.6027C15.8152 16.7097 15.9692 16.7689 16.1289 16.7689C16.2886 16.7689 16.4426 16.7097 16.5612 16.6027C16.9121 16.2873 17.3702 16.1179 17.8418 16.1291C20.358 16.1291 21.3063 17.2317 22.3134 18.3988C23.2167 19.4452 24.2399 20.6317 26.3599 20.6317C27.9396 20.683 29.4912 20.2063 30.7696 19.2769C30.5426 20.2043 30.1044 21.0668 29.4889 21.7969V21.7975Z" fill="white"/>
</svg>
