<svg width="26" height="22" viewBox="0 0 26 22" fill="none" xmlns="http://www.w3.org/2000/svg">
<path d="M26 2.6096C25.0439 3.05059 24.0167 3.34856 22.9369 3.48324C24.0511 2.78933 24.8846 1.69719 25.282 0.410618C24.2353 1.05779 23.0896 1.51332 21.8949 1.75742C21.0915 0.864556 20.0274 0.272751 18.8677 0.0738863C17.7081 -0.124978 16.5178 0.080224 15.4816 0.657635C14.4455 1.23505 13.6215 2.15236 13.1376 3.26716C12.6537 4.38195 12.5369 5.63186 12.8053 6.82283C10.6843 6.71198 8.60937 6.13817 6.71519 5.13862C4.82101 4.13907 3.14991 2.73613 1.81036 1.02085C1.35233 1.84324 1.08896 2.79672 1.08896 3.81219C1.08845 4.72634 1.30473 5.62649 1.71861 6.43277C2.1325 7.23906 2.73118 7.92654 3.46155 8.43423C2.61452 8.40617 1.78617 8.16795 1.04545 7.73937V7.81088C1.04537 9.09302 1.47145 10.3357 2.25142 11.3281C3.03139 12.3204 4.11719 13.0014 5.32458 13.2553C4.53882 13.4767 3.715 13.5093 2.91535 13.3507C3.25601 14.4539 3.91958 15.4186 4.81316 16.1097C5.70674 16.8009 6.7856 17.1839 7.89871 17.2051C6.00915 18.7491 3.67555 19.5866 1.27332 19.5829C0.847789 19.583 0.422619 19.5571 0 19.5054C2.4384 21.1373 5.27688 22.0034 8.17581 22C17.9891 22 23.3537 13.5402 23.3537 6.20306C23.3537 5.96469 23.348 5.72393 23.3377 5.48556C24.3812 4.7001 25.2819 3.72744 25.9977 2.61318L26 2.6096Z" fill="white"/>
</svg>
