<svg width="40" height="40" viewBox="0 0 40 40" fill="none" xmlns="http://www.w3.org/2000/svg">
<mask id="path-1-inside-1_0_12" fill="white">
<path fill-rule="evenodd" clip-rule="evenodd" d="M7.10147 1.15558C8.57205 -0.317963 11.1057 -0.479536 12.5945 1.23837L18.701 8.28711C18.716 8.3032 18.7307 8.31961 18.7452 8.33633C20.0893 9.88811 19.8142 12.1278 18.4761 13.4725L18.4734 13.4751L16.524 15.4259C18.536 18.6907 21.2823 21.4411 24.5441 23.4579L26.4976 21.5015C27.8362 20.1596 30.069 19.8822 31.6195 21.2133L38.7462 27.331C40.4783 28.8189 40.3189 31.3644 38.8439 32.8394L33.7401 37.9523C31.7374 39.9575 28.6773 40.6101 26.1254 39.3706C14.9928 33.9744 6.00843 24.9772 0.627962 13.837C-0.608911 11.2848 0.0427406 8.22612 2.04372 6.22242M2.04372 6.22242L7.10147 1.15558L2.04372 6.22242Z"/>
</mask>
<path d="M12.5945 1.23837L14.1061 -0.0711919L14.1059 -0.0714869L12.5945 1.23837ZM7.10147 1.15558L8.51695 2.56852L8.51711 2.56837L7.10147 1.15558ZM18.701 8.28711L17.1894 9.59668C17.2051 9.61487 17.2212 9.63277 17.2376 9.65038L18.701 8.28711ZM18.7452 8.33633L20.257 7.02689L20.2569 7.02686L18.7452 8.33633ZM18.4761 13.4725L19.8921 14.8849L19.8937 14.8832L18.4761 13.4725ZM18.4734 13.4751L19.8882 14.8888L19.8894 14.8875L18.4734 13.4751ZM16.524 15.4259L15.1093 14.0122C14.4545 14.6675 14.3354 15.6866 14.8214 16.4752L16.524 15.4259ZM24.5441 23.4579L23.4923 25.159C24.2818 25.6471 25.3034 25.5279 25.9593 24.8711L24.5441 23.4579ZM26.4976 21.5015L27.9128 22.9147L27.9135 22.914L26.4976 21.5015ZM31.6195 21.2133L30.3168 22.7308L30.3168 22.7309L31.6195 21.2133ZM38.7462 27.331L40.0494 25.8139L40.0489 25.8134L38.7462 27.331ZM38.8439 32.8394L37.4297 31.4252L37.4285 31.4264L38.8439 32.8394ZM33.7401 37.9523L35.1551 39.3657L35.1555 39.3653L33.7401 37.9523ZM26.1254 39.3706L26.9991 37.5716L26.9977 37.5709L26.1254 39.3706ZM0.627962 13.837L2.42891 12.9672L2.42774 12.9648L0.627962 13.837ZM2.04372 6.22242L3.45889 7.63567L3.4592 7.63536L2.04372 6.22242ZM14.1059 -0.0714869C11.7435 -2.79733 7.84996 -2.42569 5.68583 -0.25721L8.51711 2.56837C9.29414 1.78977 10.4678 1.83826 11.0831 2.54824L14.1059 -0.0714869ZM20.2569 7.02686C20.2267 6.99198 20.1959 6.95764 20.1644 6.92385L17.2376 9.65038C17.2361 9.64877 17.2347 9.64724 17.2335 9.6458L20.2569 7.02686ZM19.8937 14.8832C21.8681 12.8993 22.3778 9.47543 20.257 7.02689L17.2335 9.64577C17.8008 10.3008 17.7603 11.3564 17.0584 12.0617L19.8937 14.8832ZM19.8894 14.8875L19.8921 14.8849L17.0601 12.06L17.0574 12.0627L19.8894 14.8875ZM17.9387 16.8396L19.8882 14.8888L17.0587 12.0614L15.1093 14.0122L17.9387 16.8396ZM25.5959 21.7568C22.5989 19.9036 20.0754 17.3764 18.2266 14.3766L14.8214 16.4752C16.9967 20.0049 19.9658 22.9785 23.4923 25.159L25.5959 21.7568ZM25.0823 20.0883L23.1288 22.0447L25.9593 24.8711L27.9128 22.9147L25.0823 20.0883ZM32.9223 19.6958C30.4745 17.5944 27.0595 18.1064 25.0816 20.089L27.9135 22.914C28.613 22.2128 29.6634 22.1699 30.3168 22.7308L32.9223 19.6958ZM40.0489 25.8134L32.9222 19.6957L30.3168 22.7309L37.4435 28.8485L40.0489 25.8134ZM40.2581 34.2536C42.4275 32.0842 42.797 28.1741 40.0494 25.8139L37.443 28.8481C38.1595 29.4636 38.2103 30.6446 37.4297 31.4252L40.2581 34.2536ZM25.2516 41.1697C28.6421 42.8164 32.6078 41.916 35.1551 39.3657L32.325 36.539C30.8669 37.9989 28.7124 38.4037 26.9991 37.5716L25.2516 41.1697ZM-1.17299 14.7068C4.40343 26.2528 13.715 35.5776 25.253 41.1703L26.9977 37.5709C16.2706 32.3712 7.61343 23.7017 2.42891 12.9672L-1.17299 14.7068ZM0.628547 4.80917C-1.91608 7.35725 -2.81445 11.3198 -1.17182 14.7092L2.42774 12.9648C1.59662 11.2498 2.00156 9.09498 3.45889 7.63567L0.628547 4.80917ZM3.4592 7.63536L8.51695 2.56852L5.68599 -0.257364L0.628238 4.80947L3.4592 7.63536ZM20.2126 6.97754L14.1061 -0.0711918L11.0829 2.54794L17.1894 9.59668L20.2126 6.97754ZM35.1555 39.3653L40.2594 34.2523L37.4285 31.4264L32.3246 36.5394L35.1555 39.3653Z" fill="white" mask="url(#path-1-inside-1_0_12)"/>
</svg>
