<svg width="70" height="55" viewBox="0 0 70 55" fill="none" xmlns="http://www.w3.org/2000/svg">
<path fill-rule="evenodd" clip-rule="evenodd" d="M51.5385 18.448C53.2241 15.8894 55.4504 13.6904 58.0797 11.9959L64.7389 7.70249L59.4799 0L52.8994 4.21907C48.4836 7.04915 44.8531 10.8898 42.3378 15.4071C39.822 19.925 38.5018 24.9772 38.5 30.113V47.7005C38.5 49.6657 39.3126 51.5315 40.7282 52.8929C42.1408 54.2514 44.0386 54.9999 46 54.9999H62.5001C64.4615 54.9999 66.3593 54.2514 67.7719 52.8929C69.1875 51.5315 70.0001 49.6657 70.0001 47.7005V31.832C70.0001 29.8668 69.1875 28.001 67.7719 26.6396C66.3593 25.2811 64.4615 24.5326 62.5001 24.5326H48.7769C49.3661 22.3876 50.2955 20.3349 51.5385 18.448ZM66.3892 28.0918C65.3577 27.0998 63.9588 26.5426 62.5001 26.5426H46.3025C46.4081 25.8661 46.5439 25.1955 46.709 24.5326C47.3427 21.988 48.4096 19.5566 49.8709 17.3384C51.7129 14.5424 54.1409 12.1465 57.0001 10.3039L61.9226 7.13019L58.9251 2.73993L53.975 5.91361C49.8315 8.56913 46.4337 12.1673 44.0831 16.3887C41.7324 20.6101 40.5017 25.3243 40.5 30.113V47.7005C40.5 49.1033 41.0795 50.4487 42.1109 51.4407C43.1424 52.4327 44.5413 52.9899 46 52.9899H62.5001C63.9588 52.9899 65.3577 52.4327 66.3892 51.4407C67.4206 50.4487 68.0001 49.1033 68.0001 47.7005V31.832C68.0001 30.4292 67.4206 29.0838 66.3892 28.0918ZM11.3709 17.3385C13.2129 14.5424 15.6409 12.1466 18.5001 10.3039L23.4226 7.13026L20.3976 2.73999L15.475 5.91368C11.3315 8.5692 7.93372 12.1673 5.58308 16.3887C3.23243 20.6102 2.00167 25.3244 2 30.113V47.7005C2 49.1034 2.57946 50.4488 3.61092 51.4408C4.64237 52.4327 6.04132 52.99 7.50002 52.99H24.0001C25.4588 52.99 26.8577 52.4327 27.8892 51.4408C28.9206 50.4488 29.5001 49.1034 29.5001 47.7005V31.8321C29.5001 30.4292 28.9206 29.0839 27.8892 28.0919C26.8577 27.0999 25.4588 26.5426 24.0001 26.5426H7.80252C7.90815 25.8661 8.04386 25.1955 8.20897 24.5326C8.84273 21.9881 9.90963 19.5567 11.3709 17.3385ZM3.83778 15.4072C6.35275 10.8906 9.98248 7.05042 14.3973 4.22047L14.3997 4.21894L20.9427 0.000488281L26.2463 7.69777L19.5797 11.9959C16.9504 13.6904 14.7241 15.8894 13.0385 18.4481C11.7955 20.335 10.8661 22.3877 10.2769 24.5326H24.0001C25.9615 24.5326 27.8593 25.2811 29.2719 26.6397C30.6875 28.0011 31.5001 29.8669 31.5001 31.8321V47.7005C31.5001 49.6657 30.6875 51.5316 29.2719 52.893C27.8593 54.2515 25.9615 55 24.0001 55H7.50002C5.5386 55 3.64076 54.2515 2.22816 52.893C0.812566 51.5316 0 49.6657 0 47.7005V30.1123C0.00179064 24.9766 1.32203 19.9251 3.83778 15.4072Z" fill="white"/>
</svg>
